# xmcd CD database file
#
# Track frame offsets:
#	150
#	2583
#	21818
#	37595
#	54518
#	75153
#	94275
#	120128
#	142490
#	165443
#	180533
#	200558
#	220215
#	231565
#	249075
#
# Disc length: 3678 seconds
#
# Revision: 4
# Processed by: cddbd v1.5.2PL0 Copyright (c) Steve Scherf et al.
# Submitted via: CDex 1.70beta3
#
DISCID=b60e5c0f
DTITLE=O.C. - jewelz
DYEAR=1997
DGENRE=Hip-Hop
TTITLE0=Intro
TTITLE1=My world
TTITLE2=War Games (feat.ORGANIZED KONFUSION)
TTITLE3=Can't Go Wrong
TTITLE4=The Chosen One
TTITLE5=Dangerous (feat.BIG L)
TTITLE6=Win The G (feat.BUMPY KNUCKLES)
TTITLE7=Far From Yours (feat.YVETTE MICHELE)
TTITLE8=Stronjay
TTITLE9=M.U.G. (feat.FREDDIE FOXXX)
TTITLE10=The Crow
TTITLE11=You And Yours
TTITLE12=Hypocrite
TTITLE13=It's Only Right
TTITLE14=Jewelz
EXTD=YEAR: 1997
EXTT0=
EXTT1=
EXTT2=
EXTT3=
EXTT4=
EXTT5=
EXTT6=
EXTT7=
EXTT8=
EXTT9=
EXTT10=
EXTT11=
EXTT12=
EXTT13=
EXTT14=
PLAYORDER=
